<?xml version="1.0" encoding="utf-8"?>
<!-- Generator: Adobe Illustrator 16.0.0, SVG Export Plug-In . SVG Version: 6.00 Build 0)  -->
<!DOCTYPE svg PUBLIC "-//W3C//DTD SVG 1.1//EN" "http://www.w3.org/Graphics/SVG/1.1/DTD/svg11.dtd">
<svg version="1.1" id="Capa_1" xmlns="http://www.w3.org/2000/svg" xmlns:xlink="http://www.w3.org/1999/xlink" x="0px" y="0px"
	 width="940px" height="480px" viewBox="0 0 940 480" enable-background="new 0 0 940 480" xml:space="preserve">
<linearGradient id="SVGID_1_" gradientUnits="userSpaceOnUse" x1="469.9995" y1="5.0039" x2="469.9995" y2="478.0419" gradientTransform="matrix(1 0 0 -1 0 481)">
	<stop  offset="0" style="stop-color:#6FA1CC;stop-opacity:0"/>
	<stop  offset="1" style="stop-color:#6FA1CC"/>
</linearGradient>
<rect fill="url(#SVGID_1_)" width="940" height="480"/>
<path opacity="0.25" fill="#6FA1CC" enable-background="new    " d="M0,409.807l12.212-8.398l28.571,20.433l3.776-1.282l8.053,1.913
	l10.746-6.842l14.527-1.265l14.354-4.981l9.691-0.965l6.772-1.863l11.328,10.059l7.521-2.009l2.46,2.541l14.67-10.896l3.697,0.197
	l8.64-2.133l21.087-13.037l9.422-9.807l41.097-26.725l27.391-20.044l7.85-8.108l13.308,0.71l20.433-0.764l6.561-4.84l11.322,3.198
	l4.629,3.582l20.965-10.744l10.016,6.836l6.832-2.973l4.959,4.344c0,0,10.589-3.885,12.086-4.176
	c1.499-0.291,14.593,4.486,14.593,4.486l33.063-8.247l30.074-14.709l47.203-23.063l26.635,8.095l34.154,19.987l30.362,14.598
	l13.312,0.709l28.377-10.721l19.314-14.541l15.807-11.394l11.832,0.632l11.336,9.873l10.688-5.731l11.688,10.264l16.756-1.33
	l23.994-5.022l56.184,44.892l20.699,8.147l24.621,17.996l36.521,3.433l17.549,4.644L940,406.313V480H0V409.807L0,409.807z"/>
<path opacity="0.25" fill="#FFFFFF" enable-background="new    " d="M795.027,119.525h-60c-2.762,0-5,2.238-5,5c0,2.76,2.238,5,5,5
	s4.998,2.24,4.998,5.002c0,2.758-2.236,4.997-4.998,4.997l0.033,0.001h-15.033c-2.76,0-5,2.24-5,5c0,2.762,2.24,5,5,5h55
	c2.76,0,5-2.238,5-5c0-2.76-2.24-5-5-5s-5-2.24-5-4.999c0-2.762,2.24-5,5-5l-0.031-0.001h20.031c2.762,0,5.002-2.24,5.002-5
	C800.029,121.764,797.789,119.525,795.027,119.525z"/>
<path opacity="0.25" fill="#FFFFFF" enable-background="new    " d="M483.528,157h-60c-2.761,0-5,2.238-5,5c0,2.76,2.239,5,5,5
	c2.762,0,4.999,2.24,4.999,5.002c0,2.758-2.237,4.997-4.999,4.997l0.033,0.001h-15.033c-2.76,0-4.999,2.24-4.999,5
	c0,2.762,2.239,5,4.999,5h55c2.76,0,5-2.238,5-5c0-2.76-2.24-5-5-5s-5-2.24-5-4.999c0-2.762,2.24-5,5-5L463.497,167h20.031
	c2.762,0,5.002-2.24,5.002-5C488.53,159.238,486.29,157,483.528,157z"/>
<path opacity="0.25" fill="#FFFFFF" enable-background="new    " d="M151.528,187h-60c-2.761,0-5,2.238-5,5c0,2.76,2.239,5,5,5
	c2.762,0,4.999,2.24,4.999,5.002c0,2.758-2.237,4.997-4.999,4.997L91.561,207H76.528c-2.76,0-4.999,2.24-4.999,5
	c0,2.762,2.239,5,4.999,5h55c2.76,0,5-2.238,5-5c0-2.76-2.24-5-5-5s-5-2.24-5-4.999c0-2.762,2.24-5,5-5L131.497,197h20.031
	c2.762,0,5.002-2.24,5.002-5C156.53,189.238,154.29,187,151.528,187z"/>
<path opacity="0.25" fill="#FFFFFF" enable-background="new    " d="M268.527,87.947l-0.049,0.006v-0.006h-25.275
	c-2.512-0.264-4.477-2.365-4.477-4.948c0-2.762,2.238-5,5-5h-0.199c2.762,0,5-2.238,5-5c0-2.762-2.238-5-5-5h-35.001
	c-2.761,0.001-4.999,2.239-4.999,5.001s2.238,5,4.999,5h0.101v0.01c2.712,0.054,4.9,2.261,4.9,4.99c0,2.604-2,4.713-4.541,4.948
	h-25.459c-2.762,0-5,2.238-5,5c0,2.762,2.238,5,5,5h40.1v0.01c2.713,0.056,4.9,2.265,4.9,4.99c0,2.729-2.188,4.936-4.9,4.989v0.011
	h-0.021c-2.761,0-5,2.237-5,5c0,2.762,2.239,5,5,5h29.921c2.762,0,5-2.238,5-5c0-2.763-2.238-5-5-5s-5-2.238-5-5
	c0-2.763,2.238-5,5-5h14.951v-0.005l0.049,0.005c2.762,0,5-2.238,5-5C273.527,90.186,271.289,87.947,268.527,87.947z"/>
<path opacity="0.25" fill="#FFFFFF" enable-background="new    " d="M615.529,62.973l-0.049,0.006v-0.006h-25.275
	c-2.512-0.264-4.477-2.365-4.477-4.948c0-2.762,2.238-5,5-5h-0.199c2.762,0,5-2.238,5-5c0-2.762-2.238-5-5-5h-35.001
	c-2.761,0.001-4.999,2.239-4.999,5.001s2.238,5,4.999,5h0.101v0.01c2.713,0.054,4.9,2.261,4.9,4.99c0,2.604-2,4.713-4.541,4.948
	h-25.459c-2.762,0-5,2.238-5,5c0,2.762,2.238,5,5,5h40.1v0.01c2.713,0.056,4.9,2.265,4.9,4.99c0,2.729-2.188,4.936-4.9,4.989v0.011
	h-0.021c-2.761,0-5,2.237-5,5c0,2.762,2.239,5,5,5h29.921c2.762,0,5-2.238,5-5c0-2.763-2.238-5-5-5s-5-2.238-5-5
	c0-2.763,2.238-5,5-5h14.951v-0.005l0.049,0.005c2.762,0,5-2.238,5-5C620.529,65.211,618.291,62.973,615.529,62.973z"/>
<path opacity="0.25" fill="#FFFFFF" enable-background="new    " d="M687.041,221.948l-0.049,0.006v-0.006h-25.275
	c-2.512-0.264-4.477-2.365-4.477-4.948c0-2.762,2.238-5,5-5h-0.199c2.762,0,5-2.238,5-5c0-2.762-2.238-5-5-5H627.04
	c-2.761,0.001-4.999,2.239-4.999,5.001s2.238,5,4.999,5h0.101v0.01c2.713,0.054,4.9,2.261,4.9,4.99c0,2.604-2,4.713-4.541,4.948
	h-25.459c-2.762,0-5,2.238-5,5c0,2.762,2.238,5,5,5h40.1v0.01c2.713,0.056,4.9,2.265,4.9,4.99c0,2.729-2.188,4.936-4.9,4.989v0.011
	h-0.021c-2.761,0-5,2.237-5,5c0,2.762,2.239,5,5,5h29.921c2.762,0,5-2.238,5-5c0-2.763-2.238-5-5-5s-5-2.238-5-5
	c0-2.763,2.238-5,5-5h14.951v-0.005l0.049,0.005c2.762,0,5-2.238,5-5C692.041,224.187,689.803,221.948,687.041,221.948z"/>
<path opacity="0.25" fill="#FFFFFF" enable-background="new    " d="M353.528,225.973l-0.049,0.006v-0.006h-25.275
	c-2.512-0.264-4.477-2.365-4.477-4.948c0-2.762,2.238-5,5-5h-0.199c2.762,0,5-2.238,5-5c0-2.762-2.238-5-5-5h-35.001
	c-2.761,0.001-4.999,2.239-4.999,5.001s2.238,5,4.999,5h0.101v0.01c2.712,0.054,4.9,2.261,4.9,4.99c0,2.604-2,4.713-4.541,4.948
	h-25.459c-2.762,0-5,2.238-5,5c0,2.762,2.238,5,5,5h40.1v0.01c2.712,0.056,4.9,2.265,4.9,4.99c0,2.729-2.188,4.936-4.9,4.989v0.011
	h-0.021c-2.76,0-5,2.237-5,5c0,2.762,2.24,5,5,5h29.921c2.762,0,5-2.238,5-5c0-2.763-2.238-5-5-5s-5-2.238-5-5c0-2.763,2.238-5,5-5
	h14.951v-0.005l0.049,0.005c2.762,0,5-2.238,5-5C358.528,228.211,356.29,225.973,353.528,225.973z"/>
</svg>
